<svg width="193" height="64" viewBox="0 0 193 64" fill="none" xmlns="http://www.w3.org/2000/svg">
<rect width="25" height="45" rx="4" fill="#A199FF"/>
<rect x="106" y="19" width="12" height="45" rx="4" fill="#201F33"/>
<path d="M29.4019 37.4005C29.4019 36.6325 29.6259 35.9685 30.0739 35.4085C30.5219 34.8325 31.1379 34.3845 31.9219 34.0645C32.7219 33.7445 33.6419 33.5845 34.6819 33.5845C35.2899 33.5845 35.9219 33.6405 36.5779 33.7525C37.2339 33.8485 37.8179 33.9845 38.3299 34.1605V33.1045C38.3299 32.0485 38.0179 31.2085 37.3939 30.5845C36.7699 29.9605 35.9059 29.6485 34.8019 29.6485C34.1459 29.6485 33.4899 29.7765 32.8339 30.0325C32.1779 30.2725 31.4979 30.6325 30.7939 31.1125L30.1699 29.9605C30.9859 29.4005 31.7859 28.9845 32.5699 28.7125C33.3539 28.4245 34.1539 28.2805 34.9699 28.2805C36.5059 28.2805 37.7219 28.7205 38.6179 29.6005C39.5139 30.4805 39.9619 31.6965 39.9619 33.2485V39.0325C39.9619 39.4645 40.1619 39.6885 40.5619 39.7045V41.0005C40.2099 41.0485 39.9619 41.0645 39.8179 41.0485C39.4179 41.0325 39.1139 40.9045 38.9059 40.6645C38.6979 40.4245 38.5859 40.1685 38.5699 39.8965L38.5459 38.9845C37.9859 39.7045 37.2579 40.2645 36.3619 40.6645C35.4659 41.0485 34.5539 41.2405 33.6259 41.2405C32.8099 41.2405 32.0819 41.0725 31.4419 40.7365C30.8019 40.3845 30.2979 39.9205 29.9299 39.3445C29.5779 38.7525 29.4019 38.1045 29.4019 37.4005ZM37.7779 38.3605C38.1459 37.9285 38.3299 37.5285 38.3299 37.1605V35.3365C37.2259 34.9045 36.0739 34.6885 34.8739 34.6885C33.7059 34.6885 32.7619 34.9205 32.0419 35.3845C31.3219 35.8485 30.9619 36.4805 30.9619 37.2805C30.9619 37.9685 31.2259 38.5925 31.7539 39.1525C32.2979 39.7125 33.0499 39.9925 34.0099 39.9925C34.7939 39.9925 35.5219 39.8405 36.1939 39.5365C36.8819 39.2325 37.4099 38.8405 37.7779 38.3605Z" fill="#201F33"/>
<path d="M55.408 29.9365C54.32 29.9685 53.36 30.2725 52.528 30.8485C51.712 31.4245 51.136 32.2165 50.8 33.2245V41.0005H49.168V28.4965H50.704V31.4965C51.136 30.6165 51.704 29.9045 52.408 29.3605C53.128 28.8165 53.888 28.5125 54.688 28.4485C54.848 28.4325 54.984 28.4245 55.096 28.4245C55.208 28.4245 55.312 28.4325 55.408 28.4485V29.9365Z" fill="#201F33"/>
<path d="M63.262 25.8805V23.4805H64.894V25.8805H63.262ZM63.262 41.0005V28.4965H64.894V41.0005H63.262Z" fill="#201F33"/>
<path d="M73.0486 35.8405V28.4965H74.6806V35.5525C74.6806 38.3845 75.6486 39.8005 77.5846 39.8005C78.5446 39.8005 79.4406 39.4885 80.2726 38.8645C81.1206 38.2405 81.7286 37.4085 82.0966 36.3685V28.4965H83.7286V39.0325C83.7286 39.4645 83.9206 39.6885 84.3046 39.7045V41.0005C84.1126 41.0325 83.9606 41.0485 83.8486 41.0485C83.7526 41.0485 83.6486 41.0485 83.5366 41.0485C83.2006 41.0165 82.9126 40.8885 82.6726 40.6645C82.4486 40.4405 82.3366 40.1685 82.3366 39.8485L82.2886 38.1685C81.7446 39.1445 81.0006 39.9045 80.0566 40.4485C79.1286 40.9765 78.1206 41.2405 77.0326 41.2405C74.3766 41.2405 73.0486 39.4405 73.0486 35.8405Z" fill="#201F33"/>
<path d="M97.2026 41.2405C96.1786 41.2405 95.2266 41.0725 94.3466 40.7365C93.4826 40.3845 92.7226 39.8725 92.0666 39.2005L92.7386 38.0485C93.4426 38.7045 94.1466 39.1845 94.8506 39.4885C95.5706 39.7765 96.3306 39.9205 97.1306 39.9205C98.0906 39.9205 98.8746 39.7285 99.4826 39.3445C100.107 38.9445 100.419 38.3765 100.419 37.6405C100.419 37.1445 100.267 36.7685 99.9626 36.5125C99.6746 36.2405 99.2506 36.0245 98.6906 35.8645C98.1466 35.7045 97.4906 35.5205 96.7226 35.3125C95.8586 35.0725 95.1306 34.8245 94.5386 34.5685C93.9626 34.2965 93.5226 33.9605 93.2186 33.5605C92.9306 33.1445 92.7866 32.6085 92.7866 31.9525C92.7866 31.1525 92.9866 30.4805 93.3866 29.9365C93.8026 29.3925 94.3626 28.9845 95.0666 28.7125C95.7866 28.4245 96.5866 28.2805 97.4666 28.2805C98.4266 28.2805 99.2746 28.4325 100.011 28.7365C100.747 29.0405 101.347 29.4645 101.811 30.0085L101.019 31.1125C100.587 30.6005 100.051 30.2245 99.4106 29.9845C98.7866 29.7285 98.1066 29.6005 97.3706 29.6005C96.8586 29.6005 96.3706 29.6725 95.9066 29.8165C95.4426 29.9445 95.0586 30.1685 94.7546 30.4885C94.4666 30.7925 94.3226 31.2165 94.3226 31.7605C94.3226 32.4325 94.5706 32.8965 95.0666 33.1525C95.5626 33.4085 96.3146 33.6805 97.3226 33.9685C98.2666 34.2245 99.0906 34.4805 99.7946 34.7365C100.499 34.9925 101.043 35.3365 101.427 35.7685C101.811 36.1845 102.003 36.7685 102.003 37.5205C102.003 38.6885 101.563 39.6005 100.683 40.2565C99.8026 40.9125 98.6426 41.2405 97.2026 41.2405Z" fill="#201F33"/>
<path d="M122.443 37.4005C122.443 36.6325 122.667 35.9685 123.115 35.4085C123.563 34.8325 124.179 34.3845 124.963 34.0645C125.763 33.7445 126.683 33.5845 127.723 33.5845C128.331 33.5845 128.963 33.6405 129.619 33.7525C130.275 33.8485 130.859 33.9845 131.371 34.1605V33.1045C131.371 32.0485 131.059 31.2085 130.435 30.5845C129.811 29.9605 128.947 29.6485 127.843 29.6485C127.187 29.6485 126.531 29.7765 125.875 30.0325C125.219 30.2725 124.539 30.6325 123.835 31.1125L123.211 29.9605C124.027 29.4005 124.827 28.9845 125.611 28.7125C126.395 28.4245 127.195 28.2805 128.011 28.2805C129.547 28.2805 130.763 28.7205 131.659 29.6005C132.555 30.4805 133.003 31.6965 133.003 33.2485V39.0325C133.003 39.4645 133.203 39.6885 133.603 39.7045V41.0005C133.251 41.0485 133.003 41.0645 132.859 41.0485C132.459 41.0325 132.155 40.9045 131.947 40.6645C131.739 40.4245 131.627 40.1685 131.611 39.8965L131.587 38.9845C131.027 39.7045 130.299 40.2645 129.403 40.6645C128.507 41.0485 127.595 41.2405 126.667 41.2405C125.851 41.2405 125.123 41.0725 124.483 40.7365C123.843 40.3845 123.339 39.9205 122.971 39.3445C122.619 38.7525 122.443 38.1045 122.443 37.4005ZM130.819 38.3605C131.187 37.9285 131.371 37.5285 131.371 37.1605V35.3365C130.267 34.9045 129.115 34.6885 127.915 34.6885C126.747 34.6885 125.803 34.9205 125.083 35.3845C124.363 35.8485 124.003 36.4805 124.003 37.2805C124.003 37.9685 124.267 38.5925 124.795 39.1525C125.339 39.7125 126.091 39.9925 127.051 39.9925C127.835 39.9925 128.563 39.8405 129.235 39.5365C129.923 39.2325 130.451 38.8405 130.819 38.3605Z" fill="#201F33"/>
<path d="M150.137 41.0005L145.505 34.5925L142.841 37.0885V41.0005H141.209V23.4805H142.841V35.3365L149.921 28.5205H151.721L146.609 33.6325L151.913 41.0005H150.137Z" fill="#201F33"/>
<path d="M166.287 41.2405C165.087 41.2405 164.015 40.9445 163.071 40.3525C162.143 39.7605 161.415 38.9765 160.887 38.0005C160.359 37.0085 160.095 35.9365 160.095 34.7845C160.095 33.6165 160.359 32.5445 160.887 31.5685C161.431 30.5765 162.167 29.7845 163.095 29.1925C164.039 28.5845 165.103 28.2805 166.287 28.2805C167.487 28.2805 168.551 28.5845 169.479 29.1925C170.423 29.7845 171.159 30.5765 171.687 31.5685C172.231 32.5445 172.503 33.6165 172.503 34.7845C172.503 35.9365 172.239 37.0085 171.711 38.0005C171.183 38.9765 170.447 39.7605 169.503 40.3525C168.575 40.9445 167.503 41.2405 166.287 41.2405ZM161.751 34.8085C161.751 35.7365 161.951 36.5845 162.351 37.3525C162.767 38.1045 163.319 38.7045 164.007 39.1525C164.695 39.5845 165.455 39.8005 166.287 39.8005C167.119 39.8005 167.879 39.5765 168.567 39.1285C169.255 38.6805 169.807 38.0725 170.223 37.3045C170.639 36.5365 170.847 35.6885 170.847 34.7605C170.847 33.8325 170.639 32.9845 170.223 32.2165C169.807 31.4485 169.255 30.8405 168.567 30.3925C167.879 29.9445 167.119 29.7205 166.287 29.7205C165.471 29.7205 164.719 29.9525 164.031 30.4165C163.343 30.8645 162.791 31.4725 162.375 32.2405C161.959 33.0085 161.751 33.8645 161.751 34.8085Z" fill="#201F33"/>
<path d="M187.033 41.2405C186.057 41.2405 185.153 40.9925 184.321 40.4965C183.489 39.9845 182.841 39.3445 182.377 38.5765V41.0005H180.913V23.4805H182.545V31.1125C183.105 30.2645 183.777 29.5845 184.561 29.0725C185.345 28.5445 186.257 28.2805 187.297 28.2805C188.177 28.2805 188.961 28.4645 189.649 28.8325C190.353 29.2005 190.953 29.6965 191.449 30.3205C191.945 30.9285 192.321 31.6245 192.577 32.4085C192.833 33.1765 192.961 33.9685 192.961 34.7845C192.961 35.9525 192.697 37.0245 192.169 38.0005C191.657 38.9765 190.953 39.7605 190.057 40.3525C189.161 40.9445 188.153 41.2405 187.033 41.2405ZM186.649 39.8005C187.561 39.8005 188.361 39.5605 189.049 39.0805C189.753 38.6005 190.305 37.9845 190.705 37.2325C191.105 36.4645 191.305 35.6485 191.305 34.7845C191.305 33.9045 191.113 33.0805 190.729 32.3125C190.361 31.5445 189.841 30.9205 189.169 30.4405C188.497 29.9605 187.721 29.7205 186.841 29.7205C185.865 29.7205 185.001 30.0325 184.249 30.6565C183.513 31.2805 182.945 32.0085 182.545 32.8405V36.7285C182.625 37.3045 182.889 37.8245 183.337 38.2885C183.785 38.7525 184.313 39.1205 184.921 39.3925C185.529 39.6645 186.105 39.8005 186.649 39.8005Z" fill="#201F33"/>
<path d="M19.232 41V27.128L13.064 37.904H12.008L5.816 27.128V41H4.136V23.96H5.864L12.512 35.624L19.208 23.96H20.912V41H19.232Z" fill="#FDFCFF"/>
<path d="M109.928 45.344C109.4 45.344 108.904 45.272 108.44 45.128C107.96 44.984 107.544 44.744 107.192 44.408L107.984 43.304C108.224 43.528 108.504 43.68 108.824 43.76C109.128 43.84 109.432 43.88 109.736 43.88C110.12 43.88 110.48 43.784 110.816 43.592C111.152 43.4 111.424 43.128 111.632 42.776C111.856 42.44 111.968 42.064 111.968 41.648V28.496H113.6V41.552C113.6 42.288 113.424 42.944 113.072 43.52C112.72 44.096 112.264 44.544 111.704 44.864C111.144 45.184 110.552 45.344 109.928 45.344ZM111.968 25.88V23.48H113.6V25.88H111.968Z" fill="#FDFCFF"/>
</svg>
