<svg width="41" height="64" viewBox="0 0 41 64" fill="none" xmlns="http://www.w3.org/2000/svg">
<rect width="25" height="45" rx="4" fill="#A199FF"/>
<rect x="29" y="19" width="12" height="45" rx="4" fill="#201F33"/>
<path d="M19.232 41V27.128L13.064 37.904H12.008L5.816 27.128V41H4.136V23.96H5.864L12.512 35.624L19.208 23.96H20.912V41H19.232Z" fill="#FDFCFF"/>
<path d="M32.928 45.344C32.4 45.344 31.904 45.272 31.44 45.128C30.96 44.984 30.544 44.744 30.192 44.408L30.984 43.304C31.224 43.528 31.504 43.68 31.824 43.76C32.128 43.84 32.432 43.88 32.736 43.88C33.12 43.88 33.48 43.784 33.816 43.592C34.152 43.4 34.424 43.128 34.632 42.776C34.856 42.44 34.968 42.064 34.968 41.648V28.496H36.6V41.552C36.6 42.288 36.424 42.944 36.072 43.52C35.72 44.096 35.264 44.544 34.704 44.864C34.144 45.184 33.552 45.344 32.928 45.344ZM34.968 25.88V23.48H36.6V25.88H34.968Z" fill="#FDFCFF"/>
</svg>
