<svg width="36" height="39" viewBox="0 0 36 39" fill="none" xmlns="http://www.w3.org/2000/svg">
<path d="M21.7789 24.6278L34.5836 1.74415C34.7701 1.41087 34.5292 1 34.1473 1H26.7932C26.6121 1 26.4452 1.09786 26.3568 1.25585L13.29 24.608C13.1995 24.7698 13.2059 24.9683 13.3066 25.1239L21.4951 37.7717C21.5872 37.9141 21.7452 38 21.9148 38H28.0793C28.4604 38 28.7014 37.5907 28.5165 37.2574L21.7781 25.1146C21.694 24.9631 21.6943 24.779 21.7789 24.6278Z" stroke="#FDFCFF"/>
<path d="M9.17255 9.35484H2.97776C2.61745 9.35484 2.37542 9.7244 2.51943 10.0547L5.76285 17.4934C5.82256 17.6304 5.81791 17.7868 5.75018 17.92L1.36966 26.5314C1.20045 26.864 1.44211 27.2581 1.81532 27.2581H7.97908C8.16722 27.2581 8.33944 27.1525 8.42474 26.9848L13.0359 17.92C13.1036 17.7868 13.1083 17.6304 13.0486 17.4934L9.63088 9.655C9.55139 9.4727 9.37142 9.35484 9.17255 9.35484Z" stroke="#FDFCFF"/>
</svg>
